<?xml version="1.0" encoding="UTF-8"?>
<svg width="22px" height="30px" viewBox="0 0 22 30" version="1.1" xmlns="http://www.w3.org/2000/svg" xmlns:xlink="http://www.w3.org/1999/xlink">
    <title>Icon/Big/User</title>
    <g id="Icon/Big/User" stroke="none" stroke-width="1" fill="none" fill-rule="evenodd">
        <path d="M11,17 C6.581722,17 3,13.418278 3,9 C3,4.581722 6.581722,1 11,1 C15.418278,1 19,4.581722 19,9 C19,13.418278 15.418278,17 11,17 Z M11,15 C14.3137085,15 17,12.3137085 17,9 C17,5.6862915 14.3137085,3 11,3 C7.6862915,3 5,5.6862915 5,9 C5,12.3137085 7.6862915,15 11,15 Z M21,29 L19,29 C19,24.581722 15.418278,21 11,21 C6.581722,21 3,24.581722 3,29 L1,29 C1,23.4771525 5.4771525,19 11,19 C16.5228475,19 21,23.4771525 21,29 Z" id="Mask" fill="#000000"></path>
    </g>
</svg>